<?xml version="1.0" standalone="no"?>
<!DOCTYPE svg PUBLIC "-//W3C//DTD SVG 20010904//EN"
 "http://www.w3.org/TR/2001/REC-SVG-20010904/DTD/svg10.dtd">
<svg version="1.0" xmlns="http://www.w3.org/2000/svg"
 width="32.000000pt" height="32.000000pt" viewBox="0 0 32.000000 32.000000"
 preserveAspectRatio="xMidYMid meet">

<g transform="translate(0.000000,32.000000) scale(0.100000,-0.100000)"
fill="#808080" stroke="none">
<path d="M80 203 c0 -5 18 -28 40 -53 l40 -45 40 45 c22 25 40 48 40 53 0 4
-36 7 -80 7 -44 0 -80 -3 -80 -7z m110 -22 c0 -5 -7 -14 -15 -21 -12 -10 -18
-10 -30 0 -23 19 -18 30 15 30 17 0 30 -4 30 -9z"/>
</g>
</svg>
