<?xml version="1.0" standalone="no"?>
<!DOCTYPE svg PUBLIC "-//W3C//DTD SVG 20010904//EN"
 "http://www.w3.org/TR/2001/REC-SVG-20010904/DTD/svg10.dtd">
<svg version="1.0" xmlns="http://www.w3.org/2000/svg"
 width="32.000000pt" height="32.000000pt" viewBox="0 0 32.000000 32.000000"
 preserveAspectRatio="xMidYMid meet">

<g transform="translate(0.000000,32.000000) scale(0.100000,-0.100000)"
fill="#808080" stroke="none">
<path d="M116 166 c-20 -23 -36 -46 -36 -50 0 -3 36 -6 80 -6 44 0 80 3 80 6
0 11 -71 94 -80 94 -5 0 -25 -20 -44 -44z m62 -8 c19 -19 14 -28 -18 -28 -16
0 -30 4 -30 8 0 9 21 32 30 32 3 0 11 -5 18 -12z"/>
</g>
</svg>
